<?xml version="1.0" encoding="utf-8"?>
<!-- Generator: Adobe Illustrator 28.0.0, SVG Export Plug-In . SVG Version: 6.00 Build 0)  -->
<svg version="1.1" id="Layer_1" xmlns="http://www.w3.org/2000/svg" xmlns:xlink="http://www.w3.org/1999/xlink" x="0px" y="0px"
	 viewBox="0 0 155 155" style="enable-background:new 0 0 155 155;" xml:space="preserve">
<style type="text/css">
	.st0{fill:#202020;}
</style>
<path class="st0" d="M80.85,152.5c-2.24,0-4.49,0-6.73,0c-0.3-0.04-0.6-0.12-0.9-0.13c-7.46-0.4-14.7-1.86-21.68-4.5
	c-16.73-6.31-29.69-17.18-38.8-32.56c-5.45-9.2-8.68-19.17-9.8-29.81c-0.16-1.54-0.29-3.08-0.44-4.62c0-2.24,0-4.49,0-6.73
	c0.04-0.25,0.09-0.49,0.12-0.74c0.42-3.39,0.64-6.81,1.27-10.15c2.63-13.89,8.78-26.07,18.37-36.43
	C34.42,13.68,49.41,5.79,67.16,3.26C77.18,1.82,87.1,2.43,96.88,5.07c29.16,7.85,50.64,32.16,54.86,62.03
	c1.29,9.14,0.97,18.23-1.17,27.2c-4.66,19.55-15.42,34.92-32.16,46.03c-9.98,6.62-21.01,10.47-32.93,11.74
	C83.94,152.22,82.4,152.35,80.85,152.5z M68.13,86.9c0,0.42,0,0.72,0,1.02c0,9.05-0.03,18.11,0.01,27.16
	c0.03,6.19,5.92,10.61,11.87,8.96c4.11-1.14,6.84-4.79,6.85-9.24c0.02-8.95,0.01-17.9,0.01-26.86c0-0.32,0-0.65,0-1.06
	c0.4,0,0.7,0,0.99,0c5.1,0,10.2,0,15.3,0c4.13,0,8.27,0.07,12.39-0.04c5.43-0.15,9.66-5.51,8.67-10.85
	c-0.86-4.66-4.61-7.82-9.36-7.83c-9.03-0.01-18.06,0-27.08,0c-0.29,0-0.58,0-0.93,0c0-0.43,0-0.73,0-1.04c0-6.71,0-13.41,0-20.12
	c0-2.52,0.06-5.05-0.03-7.57c-0.19-5.43-5.52-9.65-10.87-8.66c-4.67,0.86-7.82,4.61-7.83,9.36c-0.02,9-0.01,18.01-0.01,27.01
	c0,0.32,0,0.64,0,1.02c-0.42,0-0.72,0-1.02,0c-9.05,0-18.11-0.03-27.16,0.01c-6.23,0.03-10.65,5.95-8.97,11.93
	c1.15,4.09,4.82,6.79,9.28,6.8c8.93,0.01,17.85,0,26.78,0C67.36,86.9,67.68,86.9,68.13,86.9z"/>
</svg>
