<?xml version="1.0" encoding="utf-8"?>
<!-- Generator: Adobe Illustrator 28.0.0, SVG Export Plug-In . SVG Version: 6.00 Build 0)  -->
<svg version="1.1" id="Layer_1" xmlns="http://www.w3.org/2000/svg" xmlns:xlink="http://www.w3.org/1999/xlink" x="0px" y="0px"
	 viewBox="0 0 155 155" style="enable-background:new 0 0 155 155;" xml:space="preserve">
<style type="text/css">
	.st0{fill:#231F20;}
</style>
<g>
	<g>
		<path class="st0" d="M109.05,29.41c-12.17,0.3-22.77,5.61-31.55,12.81c-8.71-7.14-19.44-12.65-31.55-12.81
			C3.74,28.36-0.32,78.36,6.42,105.21c5.77,21.84,22.29,47.71,51.04,47.29c7.23-0.37,13.9-1.93,20.03-5.49
			c6.14,3.56,12.8,5.12,20.03,5.49c28.75,0.43,45.5-25.57,51.04-47.29C155.29,78.88,151.38,28.01,109.05,29.41z"/>
	</g>
	<path class="st0" d="M79.47,2.5l4.5,32.56c-2.26,1.44-4.42,3.02-6.48,4.71c-2.61-2.14-5.4-4.13-8.36-5.88L60.78,2.5H79.47z"/>
	<path class="st0" d="M86.48,32.5c0,0,24.88,0,30-30C116.48,2.5,81.45,5.56,86.48,32.5z"/>
</g>
</svg>
