<?xml version="1.0" encoding="utf-8"?>
<!-- Generator: Adobe Illustrator 28.0.0, SVG Export Plug-In . SVG Version: 6.00 Build 0)  -->
<svg version="1.1" id="Layer_1" xmlns="http://www.w3.org/2000/svg" xmlns:xlink="http://www.w3.org/1999/xlink" x="0px" y="0px"
	 viewBox="0 0 155 155" style="enable-background:new 0 0 155 155;" xml:space="preserve">
<style type="text/css">
	.st0{fill:#231F20;}
</style>
<g>
	<path class="st0" d="M77.5,2.5c-41.42,0-75,33.58-75,75c0,41.42,33.58,75,75,75c41.42,0,75-33.58,75-75
		C152.5,36.08,118.92,2.5,77.5,2.5z M127.31,127.31c-13.3,13.3-30.99,20.63-49.81,20.63c-18.81,0-36.5-7.33-49.81-20.63
		C14.39,114,7.06,96.31,7.06,77.5c0-18.81,7.33-36.5,20.63-49.81C41,14.39,58.69,7.06,77.5,7.06c18.81,0,36.5,7.33,49.81,20.63
		s20.63,30.99,20.63,49.81C147.94,96.31,140.61,114,127.31,127.31z"/>
	<path class="st0" d="M125.18,29.82C112.44,17.09,95.51,10.07,77.5,10.07s-34.94,7.01-47.68,19.75
		C17.09,42.56,10.07,59.49,10.07,77.5c0,18.01,7.01,34.94,19.75,47.68c12.73,12.73,29.67,19.75,47.68,19.75s34.94-7.01,47.68-19.75
		c12.73-12.73,19.75-29.67,19.75-47.68C144.93,59.49,137.91,42.56,125.18,29.82z M130.46,85.75c-0.99,3.13-1.98,6.26-2.97,9.4
		c-3.14-0.99-4.72-1.45-7.9-2.28c-0.55,2.1-0.82,3.14-1.37,5.24c-3.07-0.8-4.62-1.17-7.71-1.82c-0.47,2.26-0.71,3.39-1.19,5.65
		c-2.99-0.63-4.49-0.9-7.5-1.38c1.1-6.93,2.2-13.86,3.3-20.78c-18.51-2.71-36.75-2.71-55.26,0c1.1,6.93,2.2,13.86,3.3,20.78
		c-3.01,0.48-4.51,0.75-7.5,1.38c-0.47-2.26-0.71-3.39-1.19-5.65c-3.1,0.65-4.64,1.01-7.71,1.82c-0.55-2.1-0.82-3.14-1.37-5.24
		c-3.18,0.83-4.76,1.29-7.9,2.28c-0.99-3.13-1.98-6.26-2.97-9.4c-2.67,0.84-4,1.29-6.65,2.25c-0.81-2.26-1.22-3.39-2.04-5.65
		c2.74-0.99,4.11-1.45,6.88-2.32c-0.99-3.13-1.98-6.26-2.97-9.4c3.01-0.96,6.06-1.84,9.12-2.63c-0.55-2.1-0.82-3.14-1.37-5.24
		c3.13-0.83,6.3-1.58,9.47-2.23c-0.47-2.26-0.71-3.39-1.19-5.65c3.25-0.69,6.54-1.3,9.82-1.81c1.1,6.93,2.2,13.86,3.3,20.78
		c19.14-2.8,38.01-2.8,57.15,0c1.1-6.93,2.2-13.86,3.3-20.78c3.28,0.51,6.57,1.12,9.82,1.81c-0.47,2.26-0.71,3.39-1.19,5.65
		c3.17,0.66,6.34,1.4,9.47,2.23c-0.55,2.1-0.82,3.14-1.37,5.24c3.06,0.79,6.11,1.67,9.12,2.63c-0.99,3.13-1.98,6.26-2.97,9.4
		c2.77,0.87,4.14,1.34,6.88,2.32c-0.81,2.26-1.22,3.39-2.04,5.65C134.46,87.04,133.13,86.6,130.46,85.75z"/>
</g>
</svg>
