<?xml version="1.0" encoding="utf-8"?>
<!-- Generator: Adobe Illustrator 28.0.0, SVG Export Plug-In . SVG Version: 6.00 Build 0)  -->
<svg version="1.1" id="Слой_1" xmlns="http://www.w3.org/2000/svg" xmlns:xlink="http://www.w3.org/1999/xlink" x="0px" y="0px"
	 viewBox="0 0 200 43.7" style="enable-background:new 0 0 200 43.7;" xml:space="preserve">
<style type="text/css">
	.st0{fill:#FFFFFF;}
	.st1{fill:#AA1F1B;}
</style>
<g>
	<g>
		<path class="st0" d="M17.5,43.7L12.2,36h-0.3H6.4v7.6H0V16.2h11.9c2.4,0,4.5,0.4,6.3,1.2s3.2,2,4.1,3.4c1,1.5,1.4,3.3,1.4,5.3
			c0,2.1-0.5,3.8-1.5,5.3c-1,1.5-2.4,2.6-4.2,3.4l6.2,8.8H17.5z M15.9,22.6c-1-0.8-2.4-1.2-4.4-1.2H6.4V31h5.2
			c1.9,0,3.4-0.4,4.4-1.3c1-0.8,1.5-2,1.5-3.5C17.4,24.6,16.9,23.5,15.9,22.6z"/>
		<path class="st0" d="M34.4,42.3c-2.3-1.2-4.1-2.9-5.4-5.1c-1.3-2.2-1.9-4.6-1.9-7.3c0-2.7,0.7-5.1,1.9-7.3
			c1.3-2.2,3.1-3.8,5.4-5.1c2.3-1.2,4.8-1.8,7.7-1.8c2.8,0,5.4,0.6,7.7,1.8c2.3,1.2,4.1,2.9,5.4,5.1c1.3,2.2,2,4.6,2,7.3
			c0,2.7-0.7,5.1-2,7.3c-1.3,2.2-3.1,3.8-5.4,5.1c-2.3,1.2-4.8,1.8-7.7,1.8C39.3,44.1,36.7,43.5,34.4,42.3z M46.5,37.6
			c1.3-0.7,2.3-1.8,3.1-3.1s1.1-2.8,1.1-4.5c0-1.7-0.4-3.2-1.1-4.5s-1.8-2.4-3.1-3.1c-1.3-0.7-2.8-1.1-4.4-1.1
			c-1.6,0-3.1,0.4-4.4,1.1s-2.3,1.8-3.1,3.1s-1.1,2.8-1.1,4.5c0,1.7,0.4,3.2,1.1,4.5s1.8,2.4,3.1,3.1c1.3,0.7,2.8,1.1,4.4,1.1
			C43.7,38.7,45.2,38.3,46.5,37.6z"/>
		<path class="st0" d="M85.8,31.9c0.9,1.2,1.3,2.6,1.3,4.3c0,2.4-0.9,4.3-2.8,5.5c-1.9,1.3-4.6,1.9-8.2,1.9H61.9V16.2h13.4
			c3.4,0,5.9,0.7,7.7,1.9c1.8,1.3,2.7,3,2.7,5.2c0,1.3-0.3,2.5-1,3.6c-0.7,1-1.5,1.9-2.7,2.5C83.7,29.9,84.9,30.7,85.8,31.9z
			 M68.2,21v6.5h6.3c1.6,0,2.7-0.3,3.6-0.8c0.8-0.6,1.2-1.4,1.2-2.4c0-1.1-0.4-1.9-1.2-2.4c-0.8-0.5-2-0.8-3.6-0.8L68.2,21L68.2,21z
			 M79.4,38.1c0.8-0.6,1.3-1.4,1.3-2.5c0-2.3-1.7-3.4-5.1-3.4h-7.4v6.8h7.4C77.3,38.9,78.6,38.6,79.4,38.1z"/>
		<path class="st0" d="M97.5,42.3c-2.3-1.2-4.1-2.9-5.4-5.1c-1.3-2.2-1.9-4.6-1.9-7.3c0-2.7,0.7-5.1,1.9-7.3
			c1.3-2.2,3.1-3.8,5.4-5.1c2.3-1.2,4.8-1.8,7.7-1.8c2.8,0,5.4,0.6,7.7,1.8c2.3,1.2,4.1,2.9,5.4,5.1c1.3,2.2,2,4.6,2,7.3
			c0,2.7-0.7,5.1-2,7.3c-1.3,2.2-3.1,3.8-5.4,5.1s-4.8,1.8-7.7,1.8C102.4,44.1,99.8,43.5,97.5,42.3z M109.6,37.6
			c1.3-0.7,2.3-1.8,3.1-3.1c0.7-1.3,1.1-2.8,1.1-4.5c0-1.7-0.4-3.2-1.1-4.5c-0.7-1.3-1.8-2.4-3.1-3.1c-1.3-0.7-2.8-1.1-4.4-1.1
			c-1.6,0-3.1,0.4-4.4,1.1s-2.3,1.8-3.1,3.1s-1.1,2.8-1.1,4.5c0,1.7,0.4,3.2,1.1,4.5c0.7,1.3,1.8,2.4,3.1,3.1
			c1.3,0.7,2.8,1.1,4.4,1.1C106.9,38.7,108.3,38.3,109.6,37.6z"/>
	</g>
	<g>
		<path class="st1" d="M150,43.7l0-16.5l-8.1,13.6H139l-8-13.2v16.1h-6V16.2h5.3l10.3,17.1l10.1-17.1h5.2l0.1,27.5H150z"/>
		<path class="st1" d="M162.5,16.2h6.4v27.5h-6.4V16.2z"/>
		<path class="st1" d="M192.6,43.7l-6.6-9.5l-6.5,9.5h-7.3l10.2-14l-9.6-13.5h7.2l6.3,8.9l6.2-8.9h6.9l-9.6,13.3L200,43.7H192.6z"/>
	</g>
</g>
<path class="st0" d="M169.4,4.3c0,3-1.7,8.8-3.7,8.8s-3.7-5.7-3.7-8.8s1.7-4.3,3.7-4.3S169.4,1.3,169.4,4.3z"/>
</svg>
