<?xml version="1.0" encoding="utf-8"?>
<!-- Generator: Adobe Illustrator 28.0.0, SVG Export Plug-In . SVG Version: 6.00 Build 0)  -->
<svg version="1.1" id="Layer_1" xmlns="http://www.w3.org/2000/svg" xmlns:xlink="http://www.w3.org/1999/xlink" x="0px" y="0px"
	 viewBox="0 0 155 155" style="enable-background:new 0 0 155 155;" xml:space="preserve">
<style type="text/css">
	.st0{fill:#231F20;}
</style>
<g>
	<path class="st0" d="M92.78,23.21H62.22c-19.4,0-35.13,18.56-35.13,41.46v46.37c0,22.9,15.73,41.46,35.13,41.46h30.56
		c19.4,0,35.13-18.56,35.13-41.46V64.67C127.91,41.77,112.18,23.21,92.78,23.21z M113.22,109.26c0,7.51-5.16,13.6-11.53,13.6H53.3
		c-6.37,0-11.53-6.09-11.53-13.6V72.94c0-7.51,5.16-13.6,11.53-13.6h48.4c6.37,0,11.53,6.09,11.53,13.6V109.26z"/>
	<rect x="42.66" y="2.5" class="st0" width="69.68" height="17.33"/>
</g>
</svg>
