<?xml version="1.0" encoding="utf-8"?>
<!-- Generator: Adobe Illustrator 28.0.0, SVG Export Plug-In . SVG Version: 6.00 Build 0)  -->
<svg version="1.1" id="Layer_1" xmlns="http://www.w3.org/2000/svg" xmlns:xlink="http://www.w3.org/1999/xlink" x="0px" y="0px"
	 viewBox="0 0 155 155" style="enable-background:new 0 0 155 155;" xml:space="preserve">
<style type="text/css">
	.st0{fill:#231F20;}
</style>
<g>
	<path class="st0" d="M124.95,2.5H30.05C14.83,2.5,2.5,14.83,2.5,30.05v94.91c0,15.21,12.33,27.55,27.55,27.55h94.91
		c15.21,0,27.55-12.33,27.55-27.55V30.05C152.5,14.83,140.17,2.5,124.95,2.5z M118.86,20.47c-2.5,6.94-5,13.88-7.49,20.81
		c-0.63,1.63-2.43,2.4-4.07,1.89c-19.58-6.1-40.03-6.1-59.61,0c-1.64,0.51-3.44-0.26-4.07-1.89c-2.5-6.94-5-13.87-7.49-20.81
		c-0.54-1.91,1.07-3.76,2.85-4.25c25.21-7.92,51.82-7.92,77.03,0C117.78,16.84,119.43,18.46,118.86,20.47z"/>
	<path class="st0" d="M74.14,27.36l-1.64,4.16c-0.94,2.37,0.81,4.94,3.36,4.94h3.29c2.55,0,4.3-2.57,3.36-4.94l-1.64-4.16
		C79.66,24.31,75.34,24.31,74.14,27.36z"/>
</g>
</svg>
